<svg xmlns="http://www.w3.org/2000/svg" viewBox="0 0 900 1600" role="img" aria-label="Coach lesson video poster">
  <defs>
    <linearGradient id="bg" x1="0" x2="1" y1="0" y2="1">
      <stop offset="0" stop-color="#2f251b"/>
      <stop offset=".46" stop-color="#192220"/>
      <stop offset="1" stop-color="#0c1110"/>
    </linearGradient>
    <linearGradient id="top" x1="0" x2="1">
      <stop offset="0" stop-color="#ff7a59"/>
      <stop offset="1" stop-color="#ffd1a4"/>
    </linearGradient>
  </defs>
  <rect width="900" height="1600" fill="url(#bg)"/>
  <rect x="120" y="120" width="660" height="900" rx="38" fill="#fff" opacity=".08"/>
  <path d="M92 404c128-58 250-82 367-71 112 10 228-11 349-64v197c-112 45-226 60-343 45-128-16-252 9-373 76Z" fill="#ff7a59" opacity=".16"/>
  <path d="M190 1600c21-275 80-442 176-501 72-45 198-42 271 5 96 61 156 226 180 496Z" fill="url(#top)"/>
  <path d="M386 828h166l36 212c-48 63-149 63-198 0Z" fill="#9f6855"/>
  <path d="M349 685c-6-115 43-199 122-201 85-3 141 80 137 198-3 90-58 162-128 164-69 1-126-71-131-161Z" fill="#bb8068"/>
  <path d="M335 634c29-132 111-178 220-145 46 14 77 48 95 103-108-14-205 0-315 42Z" fill="#19110f"/>
  <circle cx="429" cy="684" r="10" fill="#1b1110"/>
  <circle cx="532" cy="684" r="10" fill="#1b1110"/>
  <path d="M430 771c33 31 79 31 112 0" stroke="#4a2621" stroke-width="12" stroke-linecap="round"/>
  <rect x="145" y="1214" width="610" height="120" rx="20" fill="#050807" opacity=".72"/>
  <rect x="179" y="1246" width="462" height="18" rx="9" fill="#fff" opacity=".9"/>
  <rect x="179" y="1283" width="385" height="14" rx="7" fill="#ff7a59" opacity=".95"/>
</svg>
