<svg xmlns="http://www.w3.org/2000/svg" viewBox="0 0 900 1600" role="img" aria-label="Founder pitch video poster">
  <defs>
    <linearGradient id="bg" x1="0" x2="1" y1="0" y2="1">
      <stop offset="0" stop-color="#183432"/>
      <stop offset="0.58" stop-color="#13201f"/>
      <stop offset="1" stop-color="#0b1110"/>
    </linearGradient>
    <linearGradient id="shirt" x1="0" x2="1">
      <stop offset="0" stop-color="#f4fbf8"/>
      <stop offset="1" stop-color="#a5f2e8"/>
    </linearGradient>
  </defs>
  <rect width="900" height="1600" fill="url(#bg)"/>
  <rect x="94" y="135" width="712" height="1020" rx="46" fill="#203c39" opacity=".62"/>
  <circle cx="716" cy="230" r="65" fill="#21dfc7" opacity=".22"/>
  <rect x="130" y="245" width="210" height="18" rx="9" fill="#21dfc7" opacity=".5"/>
  <rect x="130" y="286" width="360" height="12" rx="6" fill="#fff" opacity=".24"/>
  <path d="M214 1600c32-268 88-430 168-486 61-43 181-42 239 3 78 60 129 220 162 483Z" fill="url(#shirt)"/>
  <path d="M282 1600c25-202 82-318 171-348h97c94 33 153 149 174 348Z" fill="#10201f" opacity=".9"/>
  <path d="M386 700c-4-106 42-188 116-188s124 82 119 188c-3 82-54 150-117 150s-115-68-118-150Z" fill="#d69a78"/>
  <path d="M369 617c22-95 75-147 145-147 70 1 119 46 134 139-41-22-91-34-150-36-48-1-91 13-129 44Z" fill="#17100e"/>
  <path d="M410 858h184l-22 197c-27 45-111 45-139 0Z" fill="#c98266"/>
  <path d="M316 710c40 24 79 37 118 38M562 747c45-7 83-20 113-40" stroke="#231916" stroke-width="16" stroke-linecap="round" opacity=".48"/>
  <circle cx="452" cy="690" r="9" fill="#211816"/>
  <circle cx="552" cy="690" r="9" fill="#211816"/>
  <path d="M454 780c30 24 68 24 98 0" stroke="#512b24" stroke-width="12" stroke-linecap="round"/>
  <rect x="155" y="1220" width="590" height="96" rx="18" fill="#050807" opacity=".72"/>
  <rect x="183" y="1249" width="420" height="18" rx="9" fill="#fff" opacity=".9"/>
  <rect x="183" y="1284" width="260" height="14" rx="7" fill="#21dfc7" opacity=".9"/>
</svg>
